<?xml version="1.0" encoding="utf-8"?>
<svg viewBox="209.1065 689.0981 338.8904 338.8919" xmlns="http://www.w3.org/2000/svg">
  <g transform="matrix(1.0814330577850342, 0, 0, 1.0814330577850342, 113.56907653808571, 588.1809082031248)" style="">
    <path d="M 216.864 249.537 C 216.858 271.487 240.615 285.215 259.627 274.245 C 270.014 268.25 275.543 256.397 273.455 244.583 L 388.878 224.236 C 397.512 222.75 402.981 214.143 400.658 205.696 C 385.407 151.739 343.197 109.596 289.216 94.423 C 280.827 92.1 272.25 97.471 270.677 106.036 L 250.329 221.459 C 232.843 218.273 216.764 231.763 216.864 249.537 Z" style="fill: rgb(255, 255, 255);"/>
    <path d="M 245.377 406.658 C 325.905 406.768 393.432 345.878 401.628 265.767 C 402.084 261.617 400.731 257.474 397.913 254.389 C 395.123 251.286 391.147 249.513 386.971 249.503 C 386.097 249.506 385.223 249.583 384.36 249.738 C 377.758 250.946 372.787 256.433 372.246 263.123 C 361.972 360.894 249.714 410.878 170.179 353.096 C 90.645 295.314 103.489 173.104 193.294 133.116 C 205.549 127.66 218.584 124.167 231.923 122.768 C 243.235 121.697 249.141 108.78 242.556 99.523 C 239.818 95.674 235.407 93.368 230.686 93.318 L 229.146 93.318 C 108.863 106.028 47.447 244.182 118.595 341.996 C 148.112 382.573 195.232 406.615 245.411 406.691 L 245.377 406.658 Z" style="fill: rgb(255, 255, 255);"/>
    <path d="M 224.025 188.428 C 228.952 186.651 232.536 182.35 233.396 177.183 C 234.135 172.85 232.911 168.409 230.049 165.069 C 227.302 161.742 223.219 159.808 218.905 159.781 C 217.289 159.781 215.683 160.052 214.153 160.584 C 145.626 184.549 128.735 273.708 183.753 321.077 C 234.152 364.468 312.429 343.458 334.328 280.66 C 335.881 276.265 335.182 271.39 332.454 267.608 C 329.681 263.686 325.179 261.343 320.373 261.317 C 319.5 261.32 318.626 261.4 317.763 261.551 C 312.596 262.414 308.299 265.995 306.519 270.921 C 290.073 317.981 228.855 329.594 196.322 291.82 C 166.528 257.227 180.925 203.491 224.025 188.428 Z" style="fill: rgb(255, 255, 255);"/>
  </g>
</svg>